<svg width="617" height="616" viewBox="0 0 617 616" fill="none" xmlns="http://www.w3.org/2000/svg">
<path d="M616.667 307.966C616.667 478.006 478.821 615.853 308.78 615.853C138.739 615.853 0.893311 478.006 0.893311 307.966C0.893311 137.925 138.739 0.0781066 308.78 0.0781066C478.821 0.0781066 616.667 137.925 616.667 307.966Z" fill="#F34837"/>
<path d="M271.252 345.493C250.527 324.768 250.527 291.164 271.252 270.437C291.979 249.712 325.583 249.712 346.308 270.437L397.833 218.912C348.651 169.729 268.909 169.729 219.727 218.912C170.544 268.095 170.544 347.837 219.727 397.02C268.909 446.201 348.651 446.201 397.833 397.02L346.308 345.493C325.583 366.219 291.979 366.219 271.252 345.493Z" fill="#F4F4F4"/>
<path d="M65.6518 266.853L135.824 276.531L133.836 290.941L63.6643 281.263L65.6518 266.853Z" fill="white"/>
<path d="M95.0712 181.744L159.637 210.882L153.633 224.185L98.6457 230.595L141.926 250.127L135.922 263.43L71.3567 234.292L77.3603 220.989L132.412 214.555L89.0875 195.003L95.0712 181.744Z" fill="white"/>
<path d="M182.851 184.465L171.449 194.85L163.855 186.369L175.184 176.049C178.014 173.471 179.821 170.663 180.605 167.623C181.368 164.559 181.116 161.344 179.85 157.979C178.607 154.592 176.392 151.148 173.203 147.647L170.877 145.094C168.431 142.408 165.991 140.309 163.56 138.795C161.152 137.259 158.763 136.298 156.393 135.912C154.023 135.526 151.718 135.717 149.478 136.485C147.217 137.229 145.043 138.551 142.957 140.451L131.231 151.131L123.533 142.679L135.258 131.999C138.759 128.81 142.506 126.494 146.499 125.05C150.494 123.56 154.564 122.946 158.707 123.209C162.851 123.471 166.896 124.612 170.842 126.633C174.791 128.608 178.469 131.466 181.876 135.206L184.137 137.688C187.522 141.405 190.025 145.333 191.646 149.472C193.291 153.589 194.051 157.723 193.926 161.873C193.803 165.977 192.814 169.972 190.956 173.857C189.101 177.696 186.399 181.232 182.851 184.465ZM129.863 136.913L177.563 189.281L166.773 199.109L119.073 146.742L129.863 136.913Z" fill="white"/>
<path d="M263.428 124.228L267.581 134.828L232.474 148.581L228.322 137.981L263.428 124.228ZM211.076 80.8861L236.913 146.842L223.324 152.165L197.486 86.2098L211.076 80.8861ZM247.691 97.527L251.737 107.855L221.205 119.816L217.159 109.488L247.691 97.527ZM241.698 68.89L245.868 79.5353L210.807 93.2705L206.636 82.6252L241.698 68.89Z" fill="white"/>
<path d="M285.193 61.4399L299.078 85.8475L311.847 60.838L328.53 60.4613L308.749 96.0431L330.664 131.267L313.835 131.647L299.55 106.762L286.403 132.267L269.477 132.649L289.828 96.4703L268.413 61.8188L285.193 61.4399Z" fill="white"/>
<path d="M353.155 142.424C426.275 161.975 480.124 228.681 480.124 307.967C480.124 402.596 403.41 479.311 308.779 479.311C214.15 479.311 137.436 402.596 137.436 307.967H69.5269C69.5269 440.101 176.644 547.219 308.779 547.219C440.915 547.219 548.032 440.101 548.032 307.967C548.032 197.245 472.823 104.091 370.704 76.8038L353.155 142.424Z" fill="#F4F4F4"/>
</svg>
