<?xml version="1.0" encoding="UTF-8" standalone="no"?>
<svg
   xmlns:dc="http://purl.org/dc/elements/1.1/"
   xmlns:cc="http://creativecommons.org/ns#"
   xmlns:rdf="http://www.w3.org/1999/02/22-rdf-syntax-ns#"
   xmlns:svg="http://www.w3.org/2000/svg"
   xmlns="http://www.w3.org/2000/svg"
   viewBox="0 0 1821.3333 1024"
   height="1024"
   width="1821.3333"
   xml:space="preserve"
   id="svg2"
   version="1.1"><metadata
     id="metadata8"><rdf:RDF><cc:Work
         rdf:about=""><dc:format>image/svg+xml</dc:format><dc:type
           rdf:resource="http://purl.org/dc/dcmitype/StillImage" /></cc:Work></rdf:RDF></metadata><defs
     id="defs6"><clipPath
       id="clipPath18"
       clipPathUnits="userSpaceOnUse"><path
         id="path16"
         d="M 0,768 H 1366 V 0 H 0 Z" /></clipPath><clipPath
       id="clipPath54"
       clipPathUnits="userSpaceOnUse"><path
         id="path52"
         d="M 0,768 H 1366 V 0 H 0 Z" /></clipPath></defs><g
     transform="matrix(1.3333333,0,0,-1.3333333,0,1024)"
     id="g10"><g
       id="g12"><g
         clip-path="url(#clipPath18)"
         id="g14"><g
           transform="translate(911,384.0254)"
           id="g20"><path
             id="path22"
             style="fill:#f34837;fill-opacity:1;fill-rule:nonzero;stroke:none"
             d="m 0,0 c 0,-127.53 -103.384,-230.915 -230.915,-230.915 -127.531,0 -230.915,103.385 -230.915,230.915 0,127.531 103.384,230.916 230.915,230.916 C -103.384,230.916 0,127.531 0,0" /></g><g
           transform="translate(651.939,355.8799)"
           id="g24"><path
             id="path26"
             style="fill:#f4f4f4;fill-opacity:1;fill-rule:nonzero;stroke:none"
             d="m 0,0 c -15.544,15.544 -15.544,40.747 0,56.292 15.545,15.544 40.748,15.544 56.292,0 l 38.644,38.644 c -36.887,36.887 -96.693,36.887 -133.58,0 -36.887,-36.887 -36.887,-96.694 0,-133.581 36.887,-36.886 96.693,-36.886 133.58,0 L 56.292,0 C 40.748,-15.544 15.545,-15.544 0,0" /></g></g></g><text
       id="text30"
       style="font-variant:normal;font-weight:900;font-stretch:normal;font-size:74.72810364px;font-family:'Airbnb Cereal App Black';-inkscape-font-specification:AirbnbCerealApp-Black;writing-mode:lr-tb;fill:#ffffff;fill-opacity:1;fill-rule:nonzero;stroke:none"
       transform="matrix(0.13663133,0.99062197,0.99062197,-0.13663133,553.0606,390.6919)"><tspan
         id="tspan28"
         y="0"
         x="0">I</tspan></text>
<text
       id="text34"
       style="font-variant:normal;font-weight:900;font-stretch:normal;font-size:74.72814178px;font-family:'Airbnb Cereal App Black';-inkscape-font-specification:AirbnbCerealApp-Black;writing-mode:lr-tb;fill:#ffffff;fill-opacity:1;fill-rule:nonzero;stroke:none"
       transform="matrix(0.41134168,0.91148123,0.91148123,-0.41134168,553.0281,411.056)"><tspan
         id="tspan32"
         y="0"
         x="0">N</tspan></text>
<text
       id="text38"
       style="font-variant:normal;font-weight:900;font-stretch:normal;font-size:74.72807312px;font-family:'Airbnb Cereal App Black';-inkscape-font-specification:AirbnbCerealApp-Black;writing-mode:lr-tb;fill:#ffffff;fill-opacity:1;fill-rule:nonzero;stroke:none"
       transform="matrix(0.73928177,0.67339622,0.67339622,-0.73928177,573.4255,458.7936)"><tspan
         id="tspan36"
         y="0"
         x="0">D</tspan></text>
<text
       id="text42"
       style="font-variant:normal;font-weight:900;font-stretch:normal;font-size:74.72808075px;font-family:'Airbnb Cereal App Black';-inkscape-font-specification:AirbnbCerealApp-Black;writing-mode:lr-tb;fill:#ffffff;fill-opacity:1;fill-rule:nonzero;stroke:none"
       transform="matrix(0.93110376,0.36475443,0.36475443,-0.93110376,613.3918,494.5106)"><tspan
         id="tspan40"
         y="0"
         x="0">E</tspan></text>
<text
       id="text46"
       style="font-variant:normal;font-weight:900;font-stretch:normal;font-size:74.72814178px;font-family:'Airbnb Cereal App Black';-inkscape-font-specification:AirbnbCerealApp-Black;writing-mode:lr-tb;fill:#ffffff;fill-opacity:1;fill-rule:nonzero;stroke:none"
       transform="matrix(0.99974515,0.02257516,0.02257516,-0.99974515,649.9539,510.5192)"><tspan
         id="tspan44"
         y="0"
         x="0">X</tspan></text>
<g
       id="g48"><g
         clip-path="url(#clipPath54)"
         id="g50"><g
           transform="translate(713.3662,508.1821)"
           id="g56"><path
             id="path58"
             style="fill:#f4f4f4;fill-opacity:1;fill-rule:nonzero;stroke:none"
             d="m 0,0 c 54.84,-14.663 95.227,-64.693 95.227,-124.157 0,-70.972 -57.536,-128.508 -128.509,-128.508 -70.972,0 -128.507,57.536 -128.507,128.508 h -50.932 c 0,-99.101 80.338,-179.439 179.439,-179.439 99.102,0 179.44,80.338 179.44,179.439 0,83.041 -56.407,152.907 -132.996,173.372 z" /></g></g></g></g></svg>